<?xml version="1.0" standalone="no"?>
<!DOCTYPE svg PUBLIC "-//W3C//DTD SVG 20010904//EN"
 "http://www.w3.org/TR/2001/REC-SVG-20010904/DTD/svg10.dtd">
<svg version="1.0" xmlns="http://www.w3.org/2000/svg"
 width="700.000000pt" height="700.000000pt" viewBox="0 0 700.000000 700.000000"
 preserveAspectRatio="xMidYMid meet">
<metadata>
Created by potrace 1.14, written by Peter Selinger 2001-2017
</metadata>
<g transform="translate(0.000000,700.000000) scale(0.100000,-0.100000)"
fill="#000000" stroke="none">
<path d="M3450 6342 c-216 -15 -418 -86 -579 -205 -31 -22 -96 -81 -145 -131
l-88 -91 -292 -1 c-272 -1 -319 -4 -421 -19 -184 -29 -416 -104 -549 -179 -23
-13 -59 -33 -81 -46 -52 -29 -196 -131 -242 -173 -224 -198 -373 -404 -488
-677 -26 -60 -80 -235 -89 -284 -2 -12 -7 -41 -11 -66 -4 -25 -9 -54 -11 -65
-13 -69 -17 -253 -17 -820 1 -701 4 -800 33 -975 23 -137 78 -349 109 -425 5
-11 26 -63 47 -115 89 -225 246 -481 410 -670 179 -207 462 -436 681 -551 43
-23 83 -44 88 -49 19 -14 287 -122 354 -142 204 -62 326 -85 546 -107 86 -9
1597 -7 1630 2 11 3 49 8 85 12 36 4 67 8 70 10 3 2 26 6 50 10 62 9 262 60
335 85 337 117 636 297 894 537 92 86 250 260 291 322 8 12 32 46 54 74 79
107 266 457 266 499 0 8 4 18 9 23 7 9 31 80 81 240 16 53 50 215 56 268 3 29
8 55 9 58 27 43 27 1696 0 1739 -2 3 -6 24 -9 46 -7 64 -45 203 -83 304 -156
419 -472 765 -873 956 -63 30 -131 63 -151 74 -20 11 -70 27 -110 35 -205 46
-191 43 -283 56 -45 6 -212 12 -372 13 l-291 1 -94 96 c-108 110 -217 187
-341 241 -152 66 -337 101 -478 90z"/>
</g>
</svg>
